<?xml version="1.0" standalone="no"?><!DOCTYPE svg PUBLIC "-//W3C//DTD SVG 1.1//EN" "http://www.w3.org/Graphics/SVG/1.1/DTD/svg11.dtd"><svg t="1660276054980" class="icon" viewBox="0 0 1024 1024" version="1.1" xmlns="http://www.w3.org/2000/svg" p-id="1786" xmlns:xlink="http://www.w3.org/1999/xlink" width="200" height="200"><defs><style type="text/css"></style></defs><path d="M769.6 121.63C754.21 52.15 692.2 0 618.18 0H408.79c-74.05 0-136.05 52.15-151.45 121.63C154.88 139.11 76.55 228.32 76.55 335.7v470.92c0 119.85 97.52 217.37 217.37 217.37h439.11c119.87 0 217.4-97.52 217.4-217.37V335.7c-0.01-107.38-78.34-196.59-180.83-214.07zM408.79 70.77h209.38c33.25 0 61.8 19.51 75.56 47.53H333.22c13.75-28.02 42.31-47.53 75.57-47.53z m293.14 118.31c-3.4 43.47-39.45 77.92-83.76 77.92H408.79c-44.33 0-80.38-34.45-83.78-77.92h376.92z m177.72 617.55c0 80.84-65.78 146.6-146.62 146.6H293.92c-80.84 0-146.6-65.75-146.6-146.6V335.7c0-67.06 45.3-123.62 106.87-141.01 6.23 79.92 73.11 143.08 154.6 143.08h209.38c81.47 0 148.35-63.15 154.58-143.08 61.58 17.38 106.89 73.94 106.89 141.01v470.93z" p-id="1787" fill="#1afa29"></path><path d="M623.54 635.41c-5.45 35.03-11.37 70.98-16.82 107.36h-2.27c-7.72-36.37-15.02-72.33-22.74-107.36l-43.67-174.23h-46.4l-43.25 174.23c-7.72 35.49-15.44 71.45-22.74 107.36h-1.8L406.1 635.41l-31.38-174.23h-54.58l68.68 334.83h63.68l44.13-186.06c5.45-26.39 10.91-51.39 15.48-76.9h2.27c4.53 25.51 9.57 50.51 15.48 76.9l45.02 186.06h65.07l65.95-334.83h-50.51l-31.85 174.23z" p-id="1788" fill="#1afa29"></path></svg>